<?xml version="1.0" encoding="utf-8"?>
<!-- Generator: Adobe Illustrator 21.0.0, SVG Export Plug-In . SVG Version: 6.00 Build 0)  -->
<svg version="1.1" id="Layer_1" xmlns="http://www.w3.org/2000/svg" xmlns:xlink="http://www.w3.org/1999/xlink" x="0px" y="0px"
	 viewBox="0 0 320 320" style="enable-background:new 0 0 320 320;" xml:space="preserve">
<style type="text/css">
	.st0{fill:#E50004;}
	.st1{fill:#FFFFFF;}
</style>
<rect class="st0" width="320" height="320"/>
<path class="st1" d="M25.7,134.4c-1.1-0.1-11.1-0.1-12.7,0c-1.7,0.2-2.3,0.9-2.3,2.6v46.8c0,2.1,1.5,2.1,3,2.1
	c1,0.1,10.6,0.1,11.7,0c2.3-0.2,2.4-1.3,2.4-3.3c0-3.4,0-42.4,0-45.8C27.7,135.2,27.3,134.6,25.7,134.4"/>
<path class="st1" d="M97.8,180.2c3.3-4.4,3.8-13.6-4.7-18.2c-4.8-2.6-30.1-10.8-35.3-12.9c-1.5-0.6-1.9-1.2-1.7-2.1
	c0.2-1,1.7-1,2.3-1c0.6,0,5.8,0,37.1,0.2c1.8,0,2.6-0.4,2.8-2.2c0.1-0.9,0.1-6.2,0-6.7c-0.1-2-0.4-2.9-2.7-2.9
	c-2.6,0-33.4-0.1-43.1,0.2c-10.9,0.4-14.1,5.5-14.8,10.7c-0.7,5.1,1.2,9.9,6,12.9c4.6,2.8,20.7,7.8,35.5,13.1
	c2.4,0.9,2.6,1.7,2.2,2.5c-0.3,0.5-1.3,0.6-2.8,0.6c-3.7,0-35.2-0.5-37.1-0.4c-2.3,0.1-2.7,0.7-2.8,3.1c0,0.6,0,4.9,0,5.5
	c0,2.2,0.4,3.1,2.7,3.1c13.3,0.1,36.4,0.3,41.2,0.1C90.6,185.5,94.9,184.2,97.8,180.2"/>
<path class="st1" d="M239.1,140.9c-2-4.6-6-6.4-14.1-6.7c-6.3-0.2-42.2,0-43.1,0c-2.5,0-2.7,1-2.7,3.2c0,0.6,0,5.6,0.1,6.4
	c0.2,1.8,1.4,2,2.7,2c0.8,0,35.6-0.2,37.9-0.2c1.1,0,1.6,0.4,1.6,1.1c0.1,0.6-0.3,1-1.1,1.4c-10.7,4.9-28.5,12.6-33.8,15.2
	c-7.8,3.8-9.6,8.2-9.1,12.6c0.5,4.9,3.5,9.2,14.4,9.6c9.6,0.3,37.2-0.1,44-0.3c2.4-0.1,2.6-1,2.8-2.7c0.1-0.7,0-4.6,0-5.2
	c0-3.1-0.4-3.8-3-3.8c-2.1,0-29.1,0.5-36.8,0.5c-1.2,0-1.6-0.7-1.2-1.4c0.3-0.4,1.1-0.9,2.6-1.6c6.4-2.9,24.2-10.2,33.1-15.6
	C238.7,152.5,241.7,146.9,239.1,140.9"/>
<path class="st1" d="M166,134.3c-1.6-0.1-11.3-0.1-12.3,0c-1.2,0.1-2.3,0.3-2.3,2.6c0,1.5,0,23.2,0,27.4c0,5.4-0.9,9.1-7.5,9.5
	c-3.9,0.3-6.7,0.3-10.4-0.1c-6.3-0.6-7.5-2.7-7.5-10.3c0-4.7,0.1-24.2,0.1-26.1c0-1.9-0.2-2.9-2.5-3c-1.6-0.1-10.8-0.1-11.8,0
	c-1.2,0.1-2.5,0.3-2.5,2.7c0,1.4-0.1,17.6,0,31.1c0.2,17.5,12.1,17,17.7,17.5c3.4,0.3,18.5,0.4,25.2-0.1
	c12.2-0.9,15.6-7.2,15.8-16.1c0.2-5.8,0.3-26.9,0.3-32.1C168.2,135.4,167.9,134.4,166,134.3"/>
<path class="st1" d="M309.3,136.9c0-1.7-0.4-2.7-2.3-2.8c-1.8-0.1-11-0.1-11.9,0c-2,0.2-2.5,0.7-2.5,2.6c0,1.5,0,24.7-0.1,28.9
	c-0.1,6.1-2.2,6.9-5.1,7.6c-2.9,0.7-12.4,0.5-13.6,0.4c-3.7-0.5-6-1.9-6.1-8c-0.1-5.8-0.1-27-0.1-28.9c0-1.9-0.8-2.5-2.4-2.6
	c-1.4-0.1-10.1-0.1-12.1,0c-2.4,0.1-2.5,1.2-2.6,3c-0.1,3.6-0.1,28.9,0.3,33.1c0.9,10,5.8,14.1,14.3,14.8c7.9,0.7,26.7,0.8,32.4-0.6
	c9.2-2.1,11.1-9.3,11.5-18.4C309.4,161.3,309.3,139.1,309.3,136.9"/>
</svg>
