<?xml version="1.0" encoding="utf-8"?>
<!-- Generator: Adobe Illustrator 21.0.0, SVG Export Plug-In . SVG Version: 6.00 Build 0)  -->
<svg version="1.1" id="Слой_1" xmlns="http://www.w3.org/2000/svg" xmlns:xlink="http://www.w3.org/1999/xlink" x="0px" y="0px"
	 viewBox="0 0 512 512" style="enable-background:new 0 0 512 512;" xml:space="preserve" width="512" height="512">
<g>
	<path d="M151.3,356.7l-19.8-55.1H55.6l-19.4,55.1H2l74.3-199.3h35.3l74.3,199.3H151.3z M122.9,273.6l-18.6-54
		c-1.4-3.6-3.2-9.3-5.6-17.1c-2.4-7.8-4.1-13.5-5-17.1c-2.4,11.1-6,23.3-10.7,36.5l-17.9,51.7H122.9z"/>
	<path d="M212,158.2h58.9c27.3,0,47.1,4,59.3,11.9c12.2,8,18.3,20.5,18.3,37.7c0,11.6-3,21.2-9,28.9c-6,7.7-14.6,12.5-25.8,14.5v1.4
		c13.9,2.6,24.2,7.8,30.7,15.5c6.6,7.7,9.8,18.2,9.8,31.4c0,17.8-6.2,31.8-18.7,41.9c-12.4,10.1-29.8,15.1-51.9,15.1H212V158.2z
		 M244.4,240.2h31.2c13.6,0,23.5-2.1,29.7-6.4c6.2-4.3,9.4-11.6,9.4-21.9c0-9.3-3.4-16.1-10.1-20.2c-6.7-4.2-17.4-6.2-32.1-6.2
		h-28.1V240.2z M244.4,266.5v62.8h34.5c13.6,0,23.8-2.6,30.7-7.8c6.9-5.2,10.4-13.4,10.4-24.6c0-10.3-3.5-18-10.6-22.9
		c-7.1-5-17.8-7.5-32.2-7.5H244.4z"/>
	<path d="M509.9,302.8c0,17.6-6.4,31.5-19.1,41.5s-30.4,15.1-52.8,15.1c-22.4,0-40.8-3.5-55.1-10.5v-30.7c9,4.3,18.7,7.6,28.8,10
		c10.2,2.4,19.7,3.7,28.4,3.7c12.8,0,22.3-2.4,28.4-7.3c6.1-4.9,9.2-11.4,9.2-19.7c0-7.4-2.8-13.7-8.4-18.9
		c-5.6-5.2-17.2-11.3-34.8-18.3c-18.1-7.3-30.9-15.7-38.3-25.1c-7.4-9.4-11.1-20.7-11.1-33.9c0-16.6,5.9-29.6,17.6-39.1
		c11.8-9.5,27.6-14.3,47.4-14.3c19,0,37.9,4.2,56.7,12.5l-10.3,26.5c-17.6-7.4-33.4-11.1-47.2-11.1c-10.5,0-18.5,2.3-23.9,6.9
		c-5.4,4.6-8.1,10.6-8.1,18.1c0,5.2,1.1,9.6,3.3,13.2s5.7,7.1,10.7,10.4c5,3.3,13.9,7.6,26.9,12.9c14.6,6.1,25.2,11.7,32,17
		c6.8,5.3,11.8,11.2,14.9,17.8C508.4,286,509.9,293.8,509.9,302.8z"/>
</g>
</svg>
