<svg xmlns="http://www.w3.org/2000/svg" viewBox="0 0 1047.97 426.36">
	<defs>
		<style>
			.cls-1{fill:#231f20;}.cls-2{fill:#ed1c24;fill-rule:evenodd;}
		</style>
	</defs>
	<g id="Слой_2" data-name="Слой 2">
		<g id="Слой_1-2" data-name="Слой 1"><path class="cls-1" d="M689.2,377.35l-8.33,46.92H668l1.72-9.81c-4.93,7.51-10.31,11.88-20.65,11.88-10.94,0-19.44-6.41-19.91-21.08-.1-3.15.14-6.55,6.05-39,3.78-20.49,15.21-31,34.08-31.06,16.59,0,22.77,9,23.12,19.87a40.35,40.35,0,0,1-1.11,10.08H674.86a40.58,40.58,0,0,0,.71-7.77c-.21-6.31-3-8.85-8.58-8.85-8.41,0-12.71,4.74-14.84,16.63-5.57,31.88-5.94,35.27-5.85,38.06.22,6.67,2.84,9.82,9,9.82,7.21,0,13.06-5,15.12-22.69H659.46l2.34-13Z"/><path class="cls-1" d="M709,424.26H692.55l15.66-87.54,34.25,0c11.3,0,17.79,7.27,18.11,17.21.48,14.92-8.9,25.59-17.18,26.2v.12c7.13,1.21,9.23,6.43,9.38,11,.13,4-3.74,21.58-3.58,26.31.08,2.42.85,4.13,2.65,4.13l-.52,2.54H734.85c-1.48-1.45-2-3.75-2.13-6.42-.21-6.42,3.13-18.31,3-22.55-.15-4.6-2.31-8.12-8.07-8.11h-12Zm8.84-49.59h11.06c6.37,0,14.76-4.37,14.34-17.22-.2-6.06-4.1-7.76-10.23-7.75h-10.7Z"/><path class="cls-1" d="M826.95,354.6c.14,4.37-.15,6.55-6.43,42.19-4,22.32-16.47,29.48-33.18,29.49-13.7,0-23.36-5.08-23.84-19.63-.14-4.37.28-6.18,6.46-41.59,3.84-22.07,17.17-30,33.64-30,13.82,0,22.88,5.08,23.35,19.5m-39.75,8.51c-6.7,37.71-6.92,38.45-6.83,41,.19,5.7,3.17,8.85,9.3,8.85,7.09,0,12-4.86,13.6-14.07,6.71-37.59,6.8-38.32,6.72-41-.19-5.95-3.19-9.46-8.72-9.45-7.81,0-12.44,5.34-14.07,14.67"/><path class="cls-1" d="M859.18,336.64l-11,61.6a27.43,27.43,0,0,0-.53,5.82c.19,5.71,3,8.37,9,8.36,8.17,0,11.75-4.37,13.48-14.2l11-61.6h16.47l-11.37,64c-2.85,15.76-12.64,25.1-31.88,25.11-15.86,0-23.28-6.29-23.65-17.69a33.22,33.22,0,0,1,.6-7.39l11.37-64Z"/><path class="cls-1" d="M910.37,424.14H893.91l15.65-87.54,31.13,0c11.78,0,18.41,8,18.77,18.9.56,17.1-12.15,33-28.25,33H916.78Zm8.75-48.63h8.29c9.26,0,15.29-6.67,14.94-17.21-.18-5.59-3.65-8.73-10.38-8.73h-8.29Z"/><path class="cls-1" d="M382,4H484.55l-12,291H410l3.79-69.43H384.34l-17.51,69.43h-63Zm9.73,186.48h25L424.12,90l5.5-51.65H426L415.65,90Z"/><path class="cls-1" d="M612.24,102.93l8.87-57.73c.49-3.23-.21-5.57-2.15-7a9.29,9.29,0,0,0-5.72-2.27,6.65,6.65,0,0,0-5.68,2.83,13.16,13.16,0,0,0-2.48,5.66L573,253.47a8.94,8.94,0,0,0,1.24,6.7,5.77,5.77,0,0,0,5,2.58c5.66,0,8.94-3,9.84-8.88l10.16-66.19H589.15l5.27-34.31h77.1L649.77,295.05H615.05l-3.36-14.94c-6,6.23-11,10.34-14.84,12.52a38.71,38.71,0,0,1-12.55,4.44A117.73,117.73,0,0,1,572,298.69c-3.67.24-8,.41-12.82.41-14.53,0-25.87-1.37-34.1-4s-14.1-7.6-17.67-14.69-4.74-15.42-3.3-24.87L536.65,43.18Q540.05,21,560.06,10.49T619.56,0c19.62,0,34.08,1.52,43.28,4.68S679,12.83,683.48,20a31.82,31.82,0,0,1,5,22.77l-9.22,60.15Z"/><path class="cls-1" d="M755.23,4H857.75l-12,291H783.23l3.8-69.43H757.55L740,295.05h-63ZM765,190.51h25L797.34,90l5.5-51.65H799.2L788.86,90Z"/><polygon class="cls-1" points="897.04 4.03 1047.97 4.03 1041.67 45.2 1000.1 45.2 961.75 295.05 893.55 295.05 931.89 45.2 890.73 45.2 897.04 4.03"/><path class="cls-2" d="M326.81,79.86c1-4,2-7.61,3-11.6l-32.72.2Q279.9,84.59,262.7,100.75l23.84-.38c6-4.28,3.72-10,7.56-18.38a19.62,19.62,0,0,1,13.8-7c3,0,12,2.12,14,4.83Z"/><path class="cls-2" d="M267.36,147.35h32.8a1.51,1.51,0,0,1,1.46,1.55v5.26a1.52,1.52,0,0,1-1.46,1.56h-32.8a1.51,1.51,0,0,1-1.46-1.56V148.9a1.51,1.51,0,0,1,1.46-1.55"/><path class="cls-2" d="M103.61,3.33,0,392.85,81.42,271.08l81-.09L160,294.44H269.64l22.91-87-10.2,0L280,217.48l-46.33,0-.82-7.56H225.5C216.92,184,207,133.43,212.64,129l32.2-25.26L241.77,97c-1.64.55-3.78,1.75-5.42,2.32-7.35.27-13-.09-20.32.18-3.52-3.75-4.64-7.68-.12-11.12,9.26-.55,16.78-.22,26,0,3.55,3.91,7,6.39,10.5,10.3l40.89-36.8L331.8,61,345.7,3.33Zm64.09,215.14-53,.36,62.75-96.27Z"/>
		</g>
	</g>
</svg>