<?xml version="1.0" encoding="iso-8859-1"?>
<!-- Generator: Adobe Illustrator 19.0.0, SVG Export Plug-In . SVG Version: 6.00 Build 0)  -->
<svg xmlns="http://www.w3.org/2000/svg" xmlns:xlink="http://www.w3.org/1999/xlink" version="1.1" id="Layer_1" x="0px" y="0px" viewBox="0 0 512 512" style="enable-background:new 0 0 512 512;" xml:space="preserve" width="512" height="512">
<g>
	<path d="M30.283,151v361h330v-45c0-41.355-33.645-75-75-75h-135V196c0-24.813-20.187-45-45-45h-15v-30h30V0h-90v121h30v30H30.283z    M60.283,30h30v61h-30V30z M60.283,438.898c21.053,5.439,37.663,22.048,43.101,43.102H60.283V438.898z M285.283,422   c24.813,0,45,20.187,45,45v15H134.026c-2.301-13.655-7.682-26.278-15.41-37.12l22.88-22.88H285.283z M120.283,196v204.787   l-22.88,22.88c-10.842-7.729-23.465-13.109-37.12-15.41V181h45C113.554,181,120.283,187.729,120.283,196z"/>
	<path d="M437.893,257.295c15.476-21.38,30.599-46.928,43.824-76.295c-13.183-29.272-28.287-54.831-43.824-76.295   C402.491,55.798,366.286,31,330.283,31c-82.71,0-150,67.29-150,150s67.29,150,150,150C366.286,331,402.491,306.202,437.893,257.295   z M210.283,181c0-66.168,53.832-120,120-120c32.074,0,62.857,33.126,83.033,60.915c6.028,8.303,11.486,16.648,16.271,24.466   l-47.595-23.798l-13.416,26.833L431.742,181l-63.167,31.583l13.416,26.833l47.595-23.798c-4.785,7.818-10.242,16.164-16.271,24.466   C393.14,267.874,362.356,301,330.283,301C264.114,301,210.283,247.168,210.283,181z"/>
</g>















</svg>
