<svg height="496pt" viewBox="0 0 496 496" width="496pt" xmlns="http://www.w3.org/2000/svg"><path d="m160 448h64v16h-64zm0 0"/><path d="m176 416h48v16h-48zm0 0"/><path d="m488 240h-112v-232c0-4.414062-3.574219-8-8-8h-240c-4.425781 0-8 3.585938-8 8v232h-112c-4.425781 0-8 3.585938-8 8v240c0 4.414062 3.574219 8 8 8h480c4.425781 0 8-3.585938 8-8v-240c0-4.414062-3.574219-8-8-8zm-8 48h-80v-32h80zm-144 0h-80v-32h80zm-224-32h32v100.6875l-10.34375-10.34375c-3.128906-3.128906-8.183594-3.128906-11.3125 0l-10.34375 10.34375zm48 0h80v32h-80zm192 0h32v100.6875l-10.34375-10.34375c-3.128906-3.128906-8.183594-3.128906-11.3125 0l-10.34375 10.34375zm8-208h-80v-32h80zm-128-32h32v100.6875l-10.34375-10.34375c-3.128906-3.128906-8.183594-3.128906-11.3125 0l-10.34375 10.34375zm-16 0v32h-80v-32zm-80 48h80v72c0 3.230469 1.945312 6.152344 4.9375 7.390625 2.984375 1.234375 6.421875.5625 8.71875-1.734375l18.34375-18.34375 18.34375 18.34375c1.527344 1.527344 3.578125 2.34375 5.65625 2.34375 1.03125 0 2.070312-.199219 3.0625-.609375 2.992188-1.238281 4.9375-4.160156 4.9375-7.390625v-72h80v176h-224zm-40 192v32h-80v-32zm-80 48h80v72c0 3.230469 1.945312 6.152344 4.9375 7.390625 2.992188 1.234375 6.429688.5625 8.71875-1.734375l18.34375-18.34375 18.34375 18.34375c1.527344 1.527344 3.578125 2.34375 5.65625 2.34375 1.03125 0 2.070312-.199219 3.0625-.609375 2.992188-1.238281 4.9375-4.160156 4.9375-7.390625v-72h80v176h-224zm240 176v-176h80v72c0 3.230469 1.945312 6.152344 4.9375 7.390625 2.992188 1.234375 6.429688.5625 8.71875-1.734375l18.34375-18.34375 18.34375 18.34375c1.527344 1.527344 3.578125 2.34375 5.65625 2.34375 1.03125 0 2.070312-.199219 3.0625-.609375 2.992188-1.238281 4.9375-4.160156 4.9375-7.390625v-72h80v176zm0 0"/><path d="m400 448h64v16h-64zm0 0"/><path d="m416 416h48v16h-48zm0 0"/><path d="m280 208h64v16h-64zm0 0"/><path d="m296 176h48v16h-48zm0 0"/></svg>