<?xml version="1.0" encoding="iso-8859-1"?>
<!-- Generator: Adobe Illustrator 19.0.0, SVG Export Plug-In . SVG Version: 6.00 Build 0)  -->
<svg version="1.1" id="Capa_1" xmlns="http://www.w3.org/2000/svg" xmlns:xlink="http://www.w3.org/1999/xlink" x="0px" y="0px"
	 viewBox="0 0 512.001 512.001" style="enable-background:new 0 0 512.001 512.001;" xml:space="preserve">
<g>
	<g>
		<path d="M511.556,72.393c-1.993-8.041-10.126-12.944-18.169-10.949l-120.999,30c-8.041,1.994-12.943,10.128-10.949,18.169
			c1.997,8.055,10.145,12.941,18.169,10.949l120.999-30C508.648,88.568,513.55,80.434,511.556,72.393z"/>
	</g>
</g>
<g>
	<g>
		<path d="M511.556,162.393c-1.993-8.041-10.126-12.946-18.169-10.949l-120.999,30c-8.041,1.994-12.943,10.128-10.949,18.169
			c1.997,8.055,10.145,12.941,18.169,10.949l120.999-30C508.648,178.568,513.55,170.434,511.556,162.393z"/>
	</g>
</g>
<g>
	<g>
		<path d="M511.556,252.392c-1.993-8.041-10.126-12.944-18.169-10.949l-120.999,30c-8.041,1.994-12.943,10.128-10.949,18.169
			c1.997,8.055,10.145,12.941,18.169,10.949l120.999-30C508.648,268.567,513.55,260.433,511.556,252.392z"/>
	</g>
</g>
<g>
	<g>
		<path d="M511.556,342.392c-1.993-8.041-10.126-12.945-18.169-10.949l-120.999,30c-8.041,1.994-12.943,10.128-10.949,18.169
			c1.997,8.055,10.145,12.941,18.169,10.949l120.999-30C508.648,358.567,513.55,350.433,511.556,342.392z"/>
	</g>
</g>
<g>
	<g>
		<path d="M290.438,62.759c-11.337-1.166-22.924-1.756-34.44-1.756c-67.377,0-131.008,19.78-179.171,55.696
			C27.285,153.643,0,203.116,0,256.002s27.285,102.358,76.828,139.303c48.164,35.917,111.794,55.696,179.171,55.696
			c11.517,0,23.104-0.591,34.441-1.756c23.122-2.379,40.559-21.696,40.559-44.933V107.691
			C330.998,84.454,313.561,65.137,290.438,62.759z M240.999,420.631c-55.305-2.654-106.768-19.942-146.238-49.375
			C53,340.114,30,299.182,30,256.002c0-43.181,23-84.112,64.761-115.253c39.47-29.433,90.933-46.721,146.238-49.375V420.631z
			 M300.998,404.312c0,7.803-5.859,14.291-13.628,15.089c-5.407,0.556-10.879,0.959-16.372,1.226V91.376
			c5.493,0.267,10.965,0.67,16.372,1.226c7.77,0.799,13.628,7.286,13.628,15.089V404.312z"/>
	</g>
</g>
<g>
</g>
<g>
</g>
<g>
</g>
<g>
</g>
<g>
</g>
<g>
</g>
<g>
</g>
<g>
</g>
<g>
</g>
<g>
</g>
<g>
</g>
<g>
</g>
<g>
</g>
<g>
</g>
<g>
</g>
</svg>
