<?xml version="1.0" encoding="utf-8"?>
<!-- Generator: Adobe Illustrator 21.0.0, SVG Export Plug-In . SVG Version: 6.00 Build 0)  -->
<svg version="1.1" id="Слой_1" xmlns="http://www.w3.org/2000/svg" xmlns:xlink="http://www.w3.org/1999/xlink" x="0px" y="0px"
	 viewBox="0 0 379.8 511" style="enable-background:new 0 0 379.8 511;" xml:space="preserve">
<path d="M230,297.5h-19.7V191.1c0-12.9-10.5-23.3-23.3-23.3h-38.5c-12.9,0-23.3,10.5-23.3,23.3v106.4h-19.7c-7.4,0-13.9,4.2-16.9,11
	c-3,6.8-1.7,14.4,3.3,19.9l57.1,62.5c4.8,5.3,11.7,8.3,18.9,8.3c7.2,0,14-3,18.9-8.3l57.1-62.5c5-5.5,6.3-13.1,3.3-19.9
	C243.9,301.7,237.5,297.5,230,297.5z M171.9,377.4c-1.5,1.6-3.2,1.8-4.1,1.8s-2.7-0.2-4.1-1.8l-54.8-59.9h22.9
	c7.4,0,13.4-6,13.4-13.4v-113c0-1.9,1.5-3.4,3.4-3.4H187c1.9,0,3.4,1.5,3.4,3.4v113c0,7.4,6,13.4,13.4,13.4h22.9L171.9,377.4z"/>
<path d="M233.3,413.8H102.2c-5.5,0-10,4.5-10,10c0,5.5,4.5,10,10,10h131.2c5.5,0,10-4.5,10-10C243.3,418.3,238.8,413.8,233.3,413.8z
	"/>
<path d="M334.5,212.8c-0.2-0.6-0.6-1.2-0.9-1.7c-0.4-0.5-0.8-1.1-1.2-1.5c-0.5-0.5-1-0.9-1.5-1.2c-0.5-0.4-1.1-0.7-1.7-0.9
	c-0.6-0.2-1.2-0.4-1.9-0.6c-1.3-0.3-2.6-0.2-3.9,0c-0.6,0.1-1.3,0.3-1.9,0.6c-0.6,0.2-1.2,0.5-1.7,0.9c-0.5,0.4-1.1,0.8-1.5,1.2
	s-0.9,1-1.2,1.5c-0.4,0.5-0.7,1.1-0.9,1.7c-0.2,0.6-0.4,1.2-0.6,1.9c-0.1,0.6-0.2,1.3-0.2,1.9s0.1,1.3,0.2,1.9
	c0.1,0.6,0.3,1.3,0.6,1.9c0.2,0.6,0.6,1.2,0.9,1.7c0.4,0.5,0.8,1.1,1.2,1.5c1.9,1.9,4.4,2.9,7.1,2.9c0.7,0,1.3-0.1,2-0.2
	c0.6-0.1,1.3-0.3,1.9-0.6c0.6-0.2,1.2-0.6,1.7-0.9c0.5-0.4,1.1-0.8,1.5-1.2c1.9-1.9,2.9-4.4,2.9-7.1c0-0.6-0.1-1.3-0.2-1.9
	C335,214,334.8,213.4,334.5,212.8z"/>
<path d="M311.4-1H92.2C67.3-1,47.1,19.3,47.1,44.2v45.1l-35.8,40.3c-0.4,0.5-0.8,1-1.2,1.5c-0.2,0.2-0.3,0.4-0.5,0.6
	c-0.2,0.3-0.5,0.6-0.7,0.9c-0.2,0.3-0.4,0.5-0.6,0.8c-0.2,0.2-0.3,0.5-0.5,0.7c-0.2,0.3-0.4,0.7-0.7,1c-0.1,0.2-0.2,0.4-0.4,0.6
	c-0.2,0.4-0.5,0.8-0.7,1.2c-0.1,0.1-0.1,0.3-0.2,0.4c-0.3,0.4-0.5,0.9-0.7,1.4c0,0.1-0.1,0.1-0.1,0.2c-0.3,0.5-0.5,1-0.7,1.5
	c0,0,0,0,0,0.1c-2.6,5.7-4,11.9-4,18.3v303.3c0,26.5,21.6,48.1,48.1,48.1h238.9c25.9,0,47.1-20.7,48-46.4
	c24.5-0.5,44.3-20.5,44.3-45.1V67.1C379.5,29.6,349-1,311.4-1z M82.9,79.1v51.6c0,2.8-2.3,5.2-5.2,5.2H32.4l32.1-36.1c0,0,0,0,0,0
	l16.9-19L82.9,79.1z M359.6,418.5c0,13.6-10.8,24.7-24.3,25.2V256.5c0-5.5-4.5-10-10-10s-10,4.5-10,10v205.4
	c0,15.5-12.6,28.1-28.1,28.1H48.3c-15.5,0-28.1-12.6-28.1-28.1V158.7c0-1,0.1-1.9,0.2-2.9h57.3c13.8,0,25.1-11.3,25.1-25.1V63.4
	c1.7-0.4,3.5-0.6,5.2-0.6h179.2c15.5,0,28.1,12.6,28.1,28.1v85.8c0,5.5,4.5,10,10,10s10-4.5,10-10V90.9c0-26.5-21.6-48.1-48.1-48.1
	H108c-1.6,0-3.1,0.1-4.7,0.2c-5.2,0.6-10.3,2.1-14.9,4.4c0,0-0.1,0-0.1,0c0,0-0.1,0-0.1,0.1c-0.4,0.2-0.7,0.4-1,0.6
	c-0.3,0.2-0.6,0.3-0.9,0.5c-0.3,0.2-0.6,0.4-0.9,0.5c-0.3,0.2-0.7,0.4-1,0.6c-0.3,0.2-0.5,0.3-0.8,0.5c-0.4,0.2-0.7,0.5-1.1,0.7
	c-0.2,0.2-0.5,0.3-0.7,0.5c-0.4,0.3-0.7,0.6-1.1,0.9c-0.2,0.2-0.4,0.3-0.6,0.5c-0.4,0.3-0.7,0.6-1.1,1c-0.2,0.2-0.4,0.3-0.6,0.5
	c-0.4,0.4-0.8,0.7-1.1,1.1c-0.2,0.2-0.3,0.3-0.5,0.5c-0.5,0.5-1,1.1-1.5,1.6c0,0,0,0,0,0L67,66.8V44.2C67,30.3,78.3,19,92.2,19
	h219.2c26.5,0,48.1,21.6,48.1,48.1V418.5z"/>
</svg>
