<?xml version="1.0" encoding="iso-8859-1"?>
<!-- Generator: Adobe Illustrator 19.0.0, SVG Export Plug-In . SVG Version: 6.00 Build 0)  -->
<svg xmlns="http://www.w3.org/2000/svg" xmlns:xlink="http://www.w3.org/1999/xlink" version="1.1" id="Layer_1" x="0px" y="0px" viewBox="0 0 498.394 498.394" style="enable-background:new 0 0 498.394 498.394;" xml:space="preserve" width="512" height="512">
<g>
	<path d="M294.874,90.031H157.827C52.759,90.031-0.057,169.614,0,249.197s52.986,159.166,159.407,159.166h135.468   c6.237,0,11.865-3.728,14.281-9.48c39.219-93.161,41.409-201.011,0-299.373C306.739,93.759,301.111,90.031,294.874,90.031z    M159.407,377.385c-171.786,0-170.808-256.376-1.58-256.376h60.986c31.722,82.03,31.722,174.346,0,256.376H159.407z    M251.856,377.385c28.994-82.084,29.485-172.9,0-256.376h32.568c31.722,82.03,31.722,174.346,0,256.376H251.856z"/>
	<path d="M371.634,121.006h89.981c20.467,0,20.489-30.978,0-30.978h-89.981C351.167,90.028,351.145,121.006,371.634,121.006z"/>
	<path d="M393.055,216.793h89.981c20.467,0,20.489-30.978,0-30.978h-89.981C372.587,185.815,372.566,216.793,393.055,216.793z"/>
	<path d="M483.036,281.601h-89.981c-20.467,0-20.489,30.978,0,30.978h89.981C503.503,312.579,503.525,281.601,483.036,281.601z"/>
	<path d="M461.615,377.389h-89.981c-20.467,0-20.489,30.978,0,30.978h89.981C482.083,408.367,482.104,377.389,461.615,377.389z"/>
</g>















</svg>
