<?xml version="1.0" encoding="iso-8859-1"?>
<!-- Generator: Adobe Illustrator 21.0.0, SVG Export Plug-In . SVG Version: 6.00 Build 0)  -->
<svg xmlns="http://www.w3.org/2000/svg" xmlns:xlink="http://www.w3.org/1999/xlink" version="1.1" id="Capa_1" x="0px" y="0px" viewBox="0 0 512.025 512.025" style="enable-background:new 0 0 512.025 512.025;" xml:space="preserve" width="512" height="512">
<g>
	<path d="M324.005,216.525l-36.063-36.063l7.071-7.071c2.955-2.954,4.543-7.008,4.382-11.183l-2.828-73.539   c-0.145-3.776-1.71-7.358-4.382-10.03l-38.184-38.184c-5.857-5.857-15.355-5.857-21.213,0l-25.456,25.456L145.814,4.393   c-5.857-5.857-15.355-5.857-21.213,0c-5.858,5.857-5.858,15.355,0,21.213l61.519,61.519l-98.995,98.995L25.606,124.6   c-5.857-5.858-15.354-5.858-21.213,0c-5.858,5.857-5.858,15.355,0,21.213l61.519,61.519l-25.457,25.457   c-5.858,5.857-5.858,15.355,0,21.213l38.184,38.184c2.672,2.672,6.254,4.237,10.03,4.383l73.54,2.828   c0.193,0.007,0.385,0.011,0.577,0.011c3.97,0,7.788-1.575,10.606-4.394l7.071-7.071l36.063,36.062   c2.929,2.929,6.768,4.394,10.606,4.394s7.678-1.465,10.606-4.394l86.267-86.267C329.863,231.88,329.863,222.382,324.005,216.525z    M156.812,269.166l-61.117-2.35l-23.42-23.421l171.12-171.12l23.42,23.421l2.351,61.116L156.812,269.166z M227.132,292.185   l-25.456-25.456l65.054-65.054l25.456,25.456L227.132,292.185z"/>
	<path d="M507.632,371.868L396.13,260.366c-5.858-5.859-15.356-5.857-21.213,0L260.366,374.917   c-2.813,2.813-4.394,6.628-4.394,10.606s1.581,7.794,4.394,10.606l111.502,111.502c2.929,2.929,6.768,4.394,10.606,4.394   s7.678-1.465,10.606-4.394c5.858-5.857,5.858-15.355,0-21.213l-58.469-58.469l93.338-93.338l58.469,58.469   c5.857,5.857,15.355,5.857,21.213,0C513.49,387.223,513.49,377.725,507.632,371.868z M313.4,406.737l-21.214-21.214l93.338-93.338   l21.214,21.214L313.4,406.737z"/>
</g>















</svg>
