<?xml version="1.0" encoding="utf-8"?>
<!-- Generator: Adobe Illustrator 21.0.0, SVG Export Plug-In . SVG Version: 6.00 Build 0)  -->
<svg version="1.1" id="Layer_1" xmlns="http://www.w3.org/2000/svg" xmlns:xlink="http://www.w3.org/1999/xlink" x="0px" y="0px"
	 viewBox="0 0 512 512" style="enable-background:new 0 0 512 512;" xml:space="preserve">
<g>
	<g>
		<path d="M476.2,231.4l-13.3-53c3.6-0.8,6.3-4,6.3-7.8v-8.6c0-18.6-15.1-33.7-33.7-33.7h-60.4v-17.6c0-9.1-7.4-16.6-16.6-16.6H50.8
			c-9.1,0-16.6,7.4-16.6,16.6V256c0,4.4,3.6,8,8,8c4.4,0,8-3.6,8-8V110.6c0-0.3,0.2-0.5,0.5-0.5h307.8c0.3,0,0.5,0.2,0.5,0.5V256
			c0,4.4,3.6,8,8,8c4.4,0,8-3.6,8-8v-9.1h94.6c0,0,0,0,0,0c0,0,0,0,0,0c11.6,0,21.5,7.6,24.9,18.2h-24.9c-4.4,0-8,3.6-8,8v17.1
			c0,13.9,11.3,25.1,25.1,25.1h9.1v35.3h-21c-6.9-19.9-25.8-34.2-48-34.2s-41.1,14.3-48,34.2h-3.9v-60.4c0-4.4-3.6-8-8-8
			c-4.4,0-8,3.6-8,8v60.4H192.8c-6.9-19.9-25.8-34.2-48-34.2s-41.1,14.3-48,34.2H50.8c-0.3,0-0.5-0.2-0.5-0.5v-17.6H85
			c4.4,0,8-3.6,8-8s-3.6-8-8-8H8c-4.4,0-8,3.6-8,8s3.6,8,8,8h26.2v17.6c0,9.1,7.4,16.6,16.6,16.6h43.3c0,0.2,0,0.4,0,0.5
			c0,28,22.8,50.8,50.8,50.8s50.8-22.8,50.8-50.8c0-0.2,0-0.4,0-0.5h180.7c0,0.2,0,0.4,0,0.5c0,28,22.8,50.8,50.8,50.8
			s50.8-22.8,50.8-50.8c0-0.2,0-0.4,0-0.5H504c4.4,0,8-3.6,8-8v-85.5C512,252,496.4,234.4,476.2,231.4z M375.2,144.3h60.4
			c9.7,0,17.6,7.9,17.6,17.6v0.5h-78V144.3z M375.2,230.9v-52.4h71.2l13.1,52.4L375.2,230.9L375.2,230.9z M144.8,401.9
			c-19.2,0-34.7-15.6-34.7-34.7s15.6-34.7,34.7-34.7s34.7,15.6,34.7,34.7S164,401.9,144.8,401.9z M427,401.9
			c-19.2,0-34.7-15.6-34.7-34.7s15.6-34.7,34.7-34.7c19.2,0,34.7,15.6,34.7,34.7S446.2,401.9,427,401.9z M496,299.3h-9.1
			c-5,0-9.1-4.1-9.1-9.1v-9.1H496L496,299.3L496,299.3z"/>
	</g>
</g>
<g>
	<g>
		<path d="M144.8,350.6c-9.1,0-16.6,7.4-16.6,16.6s7.4,16.6,16.6,16.6c9.1,0,16.6-7.4,16.6-16.6C161.4,358,154,350.6,144.8,350.6z"
			/>
	</g>
</g>
<g>
	<g>
		<path d="M427,350.6c-9.1,0-16.6,7.4-16.6,16.6s7.4,16.6,16.6,16.6s16.6-7.4,16.6-16.6S436.2,350.6,427,350.6z"/>
	</g>
</g>
<g>
	<g>
		<path d="M333,316.4H213.2c-4.4,0-8,3.6-8,8s3.6,8,8,8H333c4.4,0,8-3.6,8-8S337.4,316.4,333,316.4z"/>
	</g>
</g>
<g>
	<g>
		<path d="M127.7,282.2H25.1c-4.4,0-8,3.6-8,8s3.6,8,8,8h102.6c4.4,0,8-3.6,8-8S132.2,282.2,127.7,282.2z"/>
	</g>
</g>
<path d="M279,191.9l-13.2-1.3c-1.4-5.6-3.7-11-6.7-16l8.4-10.2c0.8-1,0.8-2.5-0.2-3.4l-14.3-14.3c-0.9-0.9-2.4-1-3.4-0.2l-10.2,8.4
	c-5-3-10.3-5.3-16-6.7l-1.3-13.3c-0.1-1.3-1.2-2.3-2.5-2.3H200c-1.3,0-2.4,1-2.5,2.3l-1.3,13.3c-5.6,1.4-11,3.7-16,6.7l-10.2-8.4
	c-1-0.8-2.5-0.8-3.4,0.2l-14.3,14.3c-0.9,0.9-1,2.4-0.2,3.4l8.4,10.2c-3.1,4.9-5.3,10.3-6.7,16l-13.2,1.3c-1.3,0.1-2.3,1.2-2.3,2.5
	v20.3c0,1.3,1,2.4,2.3,2.5l13.3,1.3c1.4,5.6,3.7,11,6.7,16l-8.5,10.2c-0.9,1-0.7,2.6,0.3,3.5l10.9,9.6c0.5,0.5,1.3,0.7,2,0.6
	c0.7-0.1,1.4-0.5,1.8-1.1l15.6-22.4c0.7-1,0.6-2.4-0.3-3.2c-15-15-15-39.3,0-54.3c15-15,39.3-15,54.3,0c15,15,15,39.3,0,54.3
	c-0.9,0.9-1,2.3-0.3,3.3l16.2,22.4c0.4,0.6,1.1,0.9,1.8,1c0.7,0.1,1.4-0.1,1.9-0.6l10.9-9.6c1-0.9,1.1-2.4,0.3-3.5l-8.4-10.2
	c3-5,5.3-10.3,6.7-16l13.2-1.3c1.3-0.1,2.3-1.2,2.3-2.5v-20.3C281.2,193.1,280.2,192,279,191.9z M276.2,212.4l-12.8,1.2
	c-1.1,0.1-2,0.9-2.2,2c-1.4,6.3-3.9,12.3-7.4,17.7c-0.6,0.9-0.5,2.1,0.2,3l8.1,9.7l-7,6.2l-13.3-18.5c15.4-17,14.9-43.4-1.5-59.8
	c-16.9-16.9-44.5-16.9-61.4,0c-16.4,16.4-16.9,42.8-1.5,59.9l-12.8,18.4l-6.9-6.1l8.1-9.7c0.7-0.9,0.8-2.1,0.2-3
	c-3.5-5.4-6.1-11.4-7.4-17.7c-0.2-1.1-1.1-1.9-2.2-2l-12.8-1.2v-15.7l12.8-1.2c1.1-0.1,2-0.9,2.2-2c1.4-6.3,3.9-12.3,7.4-17.6
	c0.6-0.9,0.5-2.1-0.2-3l-8.2-9.8l11.1-11.1l9.8,8.2c0.9,0.7,2.1,0.8,3,0.2c5.4-3.5,11.4-6.1,17.7-7.4c1.1-0.2,1.9-1.1,2-2.2
	l1.2-12.8h15l1.2,12.8c0.1,1.1,0.9,2,2,2.2c6.3,1.4,12.3,3.9,17.7,7.4c0.9,0.6,2.1,0.5,3-0.2l9.8-8.2l11.1,11.1l-8.2,9.8
	c-0.7,0.9-0.8,2.1-0.2,3c3.6,5.4,6.1,11.3,7.4,17.6c0.2,1.1,1.1,1.9,2.2,2l12.8,1.2V212.4z"/>
<path d="M218.6,248.8v-38.2c6.3-3.7,10.5-10.6,10.5-17.8c0-9.8-5.6-16.9-15-19.1c-0.8-0.2-1.6,0-2.2,0.5c-0.6,0.5-0.9,1.3-0.9,2.1
	l0.8,10.7c-2.1,1.1-4.6,1.1-6.7,0l0.9-10.7c0.1-0.8-0.3-1.6-0.9-2.2s-1.5-0.7-2.3-0.5c-8.6,2.5-13.9,9.9-13.9,19.3
	c0,8.6,4.5,15.6,12.1,18.6v38.1c-5.3,3.2-10.5,9.6-10.4,17.7c0,9.7,5.5,16.9,14.8,19.2c0.8,0.2,1.6,0,2.2-0.5
	c0.6-0.5,0.9-1.3,0.9-2.1l-0.8-10.7c2.1-1.1,4.6-1.1,6.7,0l-0.9,10.7c-0.1,0.8,0.3,1.6,0.9,2.2c0.6,0.5,1.5,0.7,2.3,0.5
	c8.5-2.5,13.9-9.8,14-19.2C230.7,258.8,226.1,251.9,218.6,248.8z M218.9,280.3l0.7-8c0.1-0.9-0.3-1.7-1-2.2l-0.1-0.1
	c-4.4-3.4-10.6-3.3-15,0.1c-0.7,0.5-1,1.3-0.9,2.2l0.6,8.3c-4.8-2.4-7.6-7-7.6-13.1c-0.1-6.6,4.6-11.8,9-13.9
	c0.9-0.4,1.4-1.3,1.4-2.3v-41.4c0-1.1-0.7-2.1-1.8-2.4c-6.4-1.9-10.3-7.4-10.3-14.4c0-5.6,2.5-10.3,6.7-12.9l-0.7,8
	c-0.1,0.9,0.3,1.7,1,2.2l0.1,0.1c4.4,3.4,10.6,3.3,14.9-0.1c0,0,0,0,0.1-0.1c0.6-0.5,1-1.3,0.9-2.1l-0.7-8.4c4.9,2.3,7.7,6.9,7.7,13
	c0,5.7-3.7,11.5-9.1,14c-0.9,0.4-1.4,1.3-1.4,2.3v41.5c0,1.1,0.7,2.1,1.8,2.4c6.4,1.9,10.3,7.4,10.3,14.4
	C225.6,273,223.1,277.7,218.9,280.3L218.9,280.3z"/>
</svg>
