<?xml version="1.0" encoding="utf-8"?>
<!-- Generator: Adobe Illustrator 21.0.0, SVG Export Plug-In . SVG Version: 6.00 Build 0)  -->
<svg version="1.1" id="Layer_1" xmlns="http://www.w3.org/2000/svg" xmlns:xlink="http://www.w3.org/1999/xlink" x="0px" y="0px"
	 viewBox="0 0 756 377" style="enable-background:new 0 0 756 377;" xml:space="preserve">
<g transform="translate(1 1)">
	<g>
		<g>
			<path d="M114.6,117.1c1.7,1.7,4.3,3.4,6.8,3.4h273.1c2.6,0,5.1-1.7,6.8-4.3c1.7-1.7,1.7-5.1,0.9-7.7l-25.6-68.3
				c-0.9-2.6-4.3-5.1-7.7-5.1H147.1c-3.4,0-6.8,2.6-7.7,6l-25.6,68.3C112.9,111.9,112.9,114.5,114.6,117.1z M153,52.2h210l18.8,51.2
				H133.4L153,52.2z"/>
			<path d="M475.6,69.3h-45.8L402.2,6.1c-0.9-3.4-4.3-5.1-7.7-5.1h-273c-3.4,0-6.8,1.7-7.7,5.1L86.2,69.3H40.4
				C19.1,69.3,2,86.3,2,107.7V129c0,5.1,3.4,8.5,8.5,8.5h45.8l-1,2.3c-0.4,0.4-0.9,0.7-1.2,1.1c-10.2,13.2-16.4,28.8-18.5,45.9
				c-0.1,0.3-0.2,0.7-0.3,1c-0.2,2.2-0.3,4.4-0.4,6.6c-0.3,4.8-0.2,9.8,0.2,14.8c0.3,4.7,0.9,9.5,1.9,14.5l4.3,17.9
				c0.2,0.9,0.5,1.8,0.9,2.6l10.2,40.1c0.9,4.3,4.3,6.8,8.5,6.8h26.5v42.7c0,14.5,11.1,25.6,25.6,25.6h68.3
				c14.5,0,25.6-11.1,25.6-25.6v-42.7h110.9v42.7c0,14.5,11.1,25.6,25.6,25.6h68.3c14.5,0,25.6-11.1,25.6-25.6v-42.7h16.2
				c4.3,0,7.7-2.6,8.5-6.8l10.9-43c0.1-0.2,0.1-0.4,0.2-0.5l0.9-3.9l3.3-13.2c6.6-27.9,1.3-56.6-15.1-80c-0.1-0.4-0.2-0.7-0.3-1.1
				l-2.2-5.1h45.8c5.1,0,8.5-3.4,8.5-8.5v-21.3C514,86.3,496.9,69.3,475.6,69.3L475.6,69.3z M127.4,18.1h261.1l52.1,119.5H74.5
				l1.5-3.4c0.4-0.5,0.7-1.1,1-1.7l13.3-30.7L127.4,18.1z M63.4,120.5H19.1v-12.8c0-11.9,9.4-21.3,21.3-21.3h38.3L75,94.9
				L63.4,120.5z M54.1,220.3c-0.9-5.1-1.4-10-1.6-14.9c-0.1-2.7-0.1-5.4-0.1-8v-0.1h46.9l17.1,34.1H56.9L54.1,220.3z M189.7,333.8
				c0,5.1-3.4,8.5-8.5,8.5h-68.3c-5.1,0-8.5-3.4-8.5-8.5v-42.7h85.3V333.8z M420.1,333.8c0,5.1-3.4,8.5-8.5,8.5h-68.3
				c-5.1,0-8.5-3.4-8.5-8.5v-42.7h85.3L420.1,333.8z M428.7,274.1H326.3h-128H95.9H67.7l-6.5-25.6H130c2.6,0,6-1.7,7.7-3.4
				c0.9-2.6,1.7-6,0-8.5l-25.6-51.2c-1.7-3.4-4.3-5.1-7.7-5.1h-50c2.1-9.3,5.6-17.9,10.7-25.6h384c5.2,7.6,8.9,16,11.2,24.7h-48.8
				c-3.4,0-6,2.6-7.7,5.1l-25.6,51.2c-1.7,2.6-1.7,6,0,8.5s5.1,4.3,7.7,4.3h67l-6.4,25.6H428.7L428.7,274.1z M456.8,231.4h-57.2
				l16.2-34.1h46.1c0,7.7-0.9,15.4-2.6,22.2L456.8,231.4z M496.9,120.5h-44.4L441,94.9l-3.7-8.5h38.3c11.9,0,21.3,9.4,21.3,21.3
				L496.9,120.5z"/>
		</g>
	</g>
</g>
<path id="path15" d="M595.7,258.2l-121.3,85.4L605.8,277"/>
<path id="path17" d="M569.1,176.4L463.9,347.7L586.6,188"/>
<path id="path19" d="M734.3,363.7c1.9,4,1.9,0.9-2.4,8.1c-9.7-3.9-4.7,0.1-13.4-1.1c0.3-0.6,0,0-0.9-1.2c-1-7.5-3.5-8.7-0.2-15.5
	c0.6,0.3,0.9-0.3,0.9-0.3c2.8-1,5-2.2,6.5-3.8c0,0,0.6,0.3,1.6,0c2.5,1.2,5.9,3.7,9.7,5.5l1.3,0.6c-0.9,1.9-1.8,3.7-2.1,5.9"/>
<path id="path21" d="M750.6,309.8c4.1,7.4,2.8,3.7-0.5,12.1c0,0-0.3,0.6-1.2,1c-4,3.5-1.2,2.5-7.7,1.6c-1.6-1.5-4.1-2.8-6.6-5.5
	c-1.9-0.9-3.8-1.8-5.3-3.4l-0.6-0.3c0.6-1.2,0.6-1.2-0.6-1.9c1.2-2.5,2.1-4.4,3-7.8l0.6,0.3c10.5-4.1,6.8-1.3,13.6-5.7l0.6-1.2
	c1.3,2.2,3.1,3.1,5,4l-0.3,0.6c0,1.6-0.9,3.4,0,4.6"/>
<path id="path23" d="M705.4,294.7c6,6.8,5.9,3.7,2.3,11.2l-0.6-0.3c-8.6,9.7-4.3,5.6-13.9,4.8c-7.1,1.9-3.7,2.8-10-1.8
	c-0.7-8.1-8.2-11.7-0.8-19c2.5-3.4,11.4-9.1,15.5-7.9c9.1,5.2,6.5,0.9,6.3,10.8"/>
<path id="path25" d="M647.9,262c1.2-0.9,2.5-0.3,3.4-0.6l1.3,0.6c4.7,4.6,2.5,1.2-0.2,11.5c1.3,5.3,0.9,2.8-2.1,9
	c-10.2,9.7-8.9,11.9-20.8,4.6c-2.8,1-8.1,2.2-10-3.3c-1-4.3-3.6-18,0.4-21.5c3.7-2.8,13.5-13.5,18.3-8.9c3.2,7.7,0.7,5,7.5,8.3"/>
<path id="path27" d="M681.5,202.6c4.1,7.4,3.5,4,2.3,11.2l-0.6-0.3c-0.3,0.6-4.6,9.4-8,8.5c-7.4,1-14.2,3.9-21.1-1
	c-1-5.9-1-2.8-0.7-8.1c-5.8-16.7-5.1-11.8,7-17.5c2.7-5.6,0.6-2.8,6.2-4.7c10.9,1.5,5.9-1,13.4,7.3"/>
<path id="path29" d="M617.3,183.7c-7.1,5-3.1,3.1-13,2.9c-0.9-1.2-1.6-1.5-2.8-2.2c0.6-1.2,0-1.6,0-1.6c-6.2-3-9.4-4.6-11-10.8
	c-0.7-5,5.2-5.9,6.5-8.5c4.9-6.9,6-17.1,15.5-7.9c3.2,3.1,8.5,8,12.5,12.3c2.2,1.8,1.3,8.4-2.1,10.6c-3.1,1.6-0.9,0.3-4.6,4.7"/>
<path id="path31" d="M612.8,98c3.5,7.1,5.4,8-2.7,8.7l-1.2-0.6c-1.2,2.5-0.9,5-1.8,6.8c-5-2.4-12.4-1.4-15.2-5.1
	c-5-5.5-1-7.4,2.7-11.8c2.4-5-1-9,3.6-12.1c7.4-4.1,11.2,5.5,11.9,10.4c1.3,0.6,1.3,0.6,1.6,1.5"/>
<path id="path35" d="M676.9,329.4l-212.3,23.2l212.1-2.4L676.9,329.4L676.9,329.4z"/>
</svg>
