<?xml version="1.0"?>
<svg xmlns="http://www.w3.org/2000/svg" viewBox="0 0 64 64" width="512" height="512"><g id="Outline"><path d="M52.188,47.293l-1.821-.827a7.85,7.85,0,0,1-3.9,3.9l.827,1.821A9.854,9.854,0,0,0,52.188,47.293Z"/><path d="M57.16,48.052l-1.907-.6a12,12,0,0,1-7.806,7.806l.6,1.907A14.009,14.009,0,0,0,57.16,48.052Z"/><path d="M60.058,48.36a15.9,15.9,0,0,1-11.7,11.7L48.835,62A17.889,17.889,0,0,0,62,48.835Z"/><path d="M48,44a4,4,0,0,0-4-4,3.947,3.947,0,0,0-2.019.567L40.414,39l3.293-3.293a1,1,0,0,0,0-1.414L36.914,27.5,38.5,25.914l2.793,2.793a1,1,0,0,0,1.414,0l15-15a1,1,0,0,0,0-1.414l-10-10a1,1,0,0,0-1.414,0l-15,15a1,1,0,0,0,0,1.414L34.086,21.5,32.5,23.086l-5.793-5.793a6.657,6.657,0,0,0-9.414,9.414L23.086,32.5,21.5,34.086l-2.793-2.793a1,1,0,0,0-1.414,0l-15,15a1,1,0,0,0,0,1.414l10,10a1,1,0,0,0,1.414,0l15-15a1,1,0,0,0,0-1.414L25.914,38.5,27.5,36.914l6.793,6.793a1,1,0,0,0,1.414,0L39,40.414l1.567,1.567A3.947,3.947,0,0,0,40,44a4,4,0,0,0,8,0ZM42,26.586,38.414,23,42,19.414,45.586,23Zm5-5L43.414,18,47,14.414,50.586,18ZM55.586,13,52,16.586,48.414,13,52,9.414ZM47,4.414,50.586,8,47,11.586,43.414,8Zm-5,5L45.586,13,42,16.586,38.414,13ZM33.414,18,37,14.414,40.586,18,37,21.586ZM35.5,22.914,37.086,24.5,35.5,26.086,33.914,24.5ZM18.707,25.293a4.657,4.657,0,0,1,6.586-6.586l.293.293L19,25.586ZM18,33.414,21.586,37,18,40.586,14.414,37Zm-5,5L16.586,42,13,45.586,9.414,42ZM4.414,47,8,43.414,11.586,47,8,50.586ZM13,55.586,9.414,52,13,48.414,16.586,52Zm5-5L14.414,47,18,43.414,21.586,47ZM26.586,42,23,45.586,19.414,42,23,38.414ZM24.5,37.086,22.914,35.5,24.5,33.914,26.086,35.5Zm10.5,4.5L20.414,27,27,20.414,41.586,35ZM44,46a2,2,0,1,1,2-2A2,2,0,0,1,44,46Z"/></g></svg>
