<svg height="511pt" viewBox="0 1 511.99969 511" width="511pt" xmlns="http://www.w3.org/2000/svg"><path d="m507.605469 323.089844-84.851563-84.851563c-5.859375-5.859375-15.355468-5.859375-21.214844 0l-9.191406 9.191407-21.214844-21.21875 30.40625-30.40625c23.394532-23.394532 23.394532-61.460938 0-84.855469-23.390624-23.390625-61.457031-23.390625-84.851562 0l-30.410156 30.410156-21.207032-21.210937 9.191407-9.191407c2.8125-2.8125 4.394531-6.628906 4.394531-10.605469 0-3.980468-1.582031-7.792968-4.394531-10.605468l-84.851563-84.851563c-5.859375-5.859375-15.355468-5.859375-21.214844 0l-42.425781 42.425781c-5.855469 5.855469-5.855469 15.355469 0 21.210938l84.855469 84.851562c2.925781 2.929688 6.765625 4.394532 10.605469 4.394532 3.835937 0 7.675781-1.464844 10.605469-4.394532l12.019531-12.019531 21.210937 21.210938-74.246094 74.246093c-5.859374 5.855469-5.859374 15.355469 0 21.210938l21.214844 21.214844s-20.703125 20.78125-21.09375 21.292968c-15.136718-11.160156-33.203125-17.863281-52.15625-19.136718-23.703125-1.597656-47.183594 5.332031-66.113281 19.511718-3.484375 2.609376-5.660156 6.601563-5.972656 10.941407-.308594 4.335937 1.28125 8.597656 4.355469 11.671875l48.347656 48.347656-2.828125 2.832031c-5.859375 5.855469-5.859375 15.351563 0 21.210938 2.929687 2.929687 6.769531 4.394531 10.605469 4.394531 3.839843 0 7.679687-1.464844 10.605468-4.394531l2.828125-2.828125 48.351563 48.347656c2.820312 2.824219 6.640625 4.394531 10.605468 4.394531.355469 0 .710938-.011719 1.066407-.039062 4.339843-.308594 8.332031-2.488281 10.941406-5.96875 14.175781-18.929688 21.105469-42.410157 19.511719-66.113281-1.273438-18.957032-7.976563-37.019532-19.132813-52.15625.507813-.390626 21.289063-21.09375 21.289063-21.09375l21.214844 21.210937c2.929687 2.929687 6.765624 4.394531 10.605468 4.394531 3.835938 0 7.675782-1.464844 10.605469-4.394531l74.246094-74.246094 21.21875 21.21875-12.023438 12.019531c-5.855469 5.859376-5.855469 15.355469 0 21.214844l84.855469 84.851563c2.925781 2.929687 6.765625 4.394531 10.605469 4.394531 3.835937 0 7.675781-1.464844 10.605469-4.394531l42.425781-42.425781c2.8125-2.8125 4.394531-6.628907 4.394531-10.605469 0-3.980469-1.582031-7.796875-4.394531-10.609375zm-350.015625-265.164063 21.210937-21.210937 21.214844 21.210937-21.210937 21.214844zm63.640625 63.640625-21.214844-21.214844 21.214844-21.210937 21.210937 21.210937zm-24.945313 284.761719-90.121094-90.117187c25.164063-10.085938 54.980469-4.65625 74.878907 15.242187 19.894531 19.894531 25.324219 49.710937 15.242187 74.875zm68.78125-116.476563-42.425781-42.425781 42.425781-42.425781 42.425782 42.425781zm63.640625-63.636718-42.425781-42.429688 21.210938-21.210937 42.425781 42.425781zm-.003906-84.855469 9.199219-9.195313c11.695312-11.695312 30.726562-11.695312 42.425781 0 11.695313 11.699219 11.695313 30.730469 0 42.425782l-9.199219 9.199218zm62.230469 149.910156 21.214844-21.210937 21.210937 21.210937-21.210937 21.214844zm63.640625 63.640625-21.214844-21.214844 21.214844-21.210937 21.210937 21.210937zm0 0"/><path d="m116.609375 422.257812c-5.992187-2.210937-11.542969-5.765624-16.058594-10.28125-4.542969-4.539062-7.984375-9.894531-10.230469-15.914062-2.894531-7.757812-11.53125-11.703125-19.296874-8.808594-7.757813 2.898438-11.703126 11.535156-8.808594 19.296875 3.757812 10.074219 9.519531 19.035157 17.121094 26.636719 7.558593 7.5625 16.855468 13.515625 26.886718 17.214844 1.710938.632812 3.464844.929687 5.191406.929687 6.101563 0 11.839844-3.75 14.074219-9.8125 2.867188-7.769531-1.109375-16.394531-8.878906-19.261719zm0 0"/><path d="m110.691406 482.8125c-19.96875-4.164062-38.148437-13.988281-52.570312-28.410156-14.453125-14.453125-24.285156-32.671875-28.429688-52.6875-1.683594-8.109375-9.621094-13.328125-17.730468-11.644532-8.113282 1.679688-13.328126 9.617188-11.644532 17.730469 5.335938 25.761719 17.988282 49.210938 36.59375 67.816407 18.5625 18.5625 41.957032 31.203124 67.65625 36.5625 1.035156.214843 2.0625.320312 3.078125.320312 6.957031 0 13.195313-4.867188 14.667969-11.941406 1.691406-8.109375-3.511719-16.054688-11.621094-17.746094zm0 0"/></svg>