<?xml version="1.0" encoding="iso-8859-1"?>
<!-- Generator: Adobe Illustrator 19.0.0, SVG Export Plug-In . SVG Version: 6.00 Build 0)  -->
<svg version="1.1" id="Layer_1" xmlns="http://www.w3.org/2000/svg" xmlns:xlink="http://www.w3.org/1999/xlink" x="0px" y="0px"
	 viewBox="0 0 512 512" style="enable-background:new 0 0 512 512;" xml:space="preserve">
<g>
	<g>
		<path d="M356.881,270.412l-32.426,32.426l-21.618-21.617l74.94-74.94l-25.221-25.221l21.617-21.618l-21.617-21.617l-21.617,21.618
			l-25.221-25.221l-74.94,74.94l-21.618-21.617l32.426-32.426L86.47,0L0,86.47l155.118,155.118l32.426-32.426l21.618,21.617
			l-75.662,75.661l25.221,25.221l-21.617,21.618l21.617,21.617l21.617-21.618l25.221,25.221l75.661-75.661l21.618,21.617
			l-32.426,32.426L425.53,511.999L512,425.53L356.881,270.412z M155.119,198.354L43.235,86.47L86.47,43.235l111.884,111.884
			L155.119,198.354z M305.72,177.456l28.823,28.824l-21.617,21.617l-28.824-28.823L305.72,177.456z M205.559,335.263l-28.824-28.823
			l85.749-85.749l28.824,28.823L205.559,335.263z M313.646,356.881l43.234-43.235l111.884,111.885l-43.234,43.234L313.646,356.881z"
			/>
	</g>
</g>
<g>
	<g>
		<path d="M460.645,51.356c-25.948-25.947-60.495-40.236-97.278-40.236v30.572c28.617,0,55.487,11.11,75.661,31.282
			c20.172,20.173,31.282,47.043,31.282,75.659h30.572C500.881,111.849,486.591,77.303,460.645,51.356z"/>
	</g>
</g>
<g>
	<g>
		<path d="M417.409,94.591c-14.436-14.436-33.629-22.387-54.043-22.387v30.572c12.249,0,23.764,4.77,32.426,13.432
			c8.661,8.661,13.431,20.175,13.431,32.424h30.572C439.795,128.218,431.844,109.025,417.409,94.591z"/>
	</g>
</g>
<g>
	<g>
		<path d="M72.972,439.028C52.8,418.855,41.69,391.984,41.69,363.366H11.119c0,36.784,14.289,71.332,40.236,97.279
			c25.945,25.946,60.492,40.235,97.275,40.236l0.001-30.572C120.013,470.309,93.145,459.2,72.972,439.028z"/>
	</g>
</g>
<g>
	<g>
		<path d="M116.208,395.793c-8.662-8.662-13.432-20.177-13.432-32.425H72.204c0,20.415,7.95,39.607,22.386,54.042
			c14.435,14.435,33.627,22.386,54.041,22.387l0.002-30.572C136.383,409.224,124.869,404.454,116.208,395.793z"/>
	</g>
</g>
<g>
</g>
<g>
</g>
<g>
</g>
<g>
</g>
<g>
</g>
<g>
</g>
<g>
</g>
<g>
</g>
<g>
</g>
<g>
</g>
<g>
</g>
<g>
</g>
<g>
</g>
<g>
</g>
<g>
</g>
</svg>
