<svg height="496pt" viewBox="0 0 496 496.83767" width="496pt" xmlns="http://www.w3.org/2000/svg"><path d="m483.964844 221.589844c7.265625-11.660156 9.433594-25.789063 5.996094-39.085938-3.375-13.308594-12.234376-24.558594-24.378907-30.960937-3.066406-1.722657-4.65625-5.238281-3.921875-8.679688.394532-1.875.691406-3.769531.890625-5.671875.378907-3.480468-1.480469-6.820312-4.636719-8.335937-3.152343-1.511719-6.921874-.875-9.398437 1.597656l-39.269531 39.265625-239.085938 239.136719-39.269531 39.269531c-2.46875 2.476562-3.109375 6.246094-1.59375 9.402344 1.515625 3.152344 4.855469 5.011718 8.332031 4.632812 1.84375-.203125 3.765625-.476562 5.691406-.890625 3.4375-.734375 6.949219.855469 8.664063 3.921875 6.402344 12.148438 17.65625 21.007813 30.964844 24.378906 13.265625 3.414063 27.347656 1.253907 38.980469-5.980468 3.0625-1.859375 6.972656-1.546875 9.703124.777344 9.085938 8.03125 20.789063 12.464843 32.917969 12.46875 1.527344 0 3.0625-.074219 4.597657-.203126 13.710937-1.363281 26.273437-8.246093 34.808593-19.0625 2.242188-2.761718 5.984375-3.816406 9.339844-2.625 12.78125 5.042969 27.078125 4.585938 39.515625-1.261718 12.480469-5.910156 22.019531-16.644532 26.425781-29.730469 1.238281-3.398437 4.476563-5.652344 8.089844-5.640625 13.699219.21875 26.910156-5.066406 36.675781-14.675781 9.6875-9.710938 15.011719-22.941407 14.757813-36.65625-.007813-3.640625 2.261719-6.894531 5.679687-8.140625 13.070313-4.417969 23.78125-13.957032 29.679688-26.425782 5.832031-12.40625 6.296875-26.664062 1.289062-39.425781-1.222656-3.390625-.160156-7.183593 2.644532-9.445312 10.796874-8.542969 17.652343-21.109375 18.992187-34.808594 1.25-13.6875-3.214844-27.285156-12.339844-37.566406-2.269531-2.707031-2.566406-6.554688-.742187-9.578125zm-112.515625 149.46875c-47.222657 47.613281-117.777344 63.503906-180.851563 40.730468l13.277344-13.28125c14.75 4.5 30.078125 6.816407 45.496094 6.871094 49.480468-.167968 95.980468-23.695312 125.429687-63.457031 29.449219-39.765625 38.398438-91.101563 24.132813-138.484375l13.210937-13.253906c22.792969 63.074218 6.914063 133.644531-40.695312 180.882812zm14.039062-154.160156c10.984375 47.132812-3.144531 96.59375-37.367187 130.8125s-83.683594 48.347656-130.816406 37.363281zm82.421875 73.578124c-8.601562 6.738282-11.796875 18.300782-7.875 28.5 3.417969 8.515626 3.117188 18.074219-.828125 26.359376-3.953125 8.390624-11.144531 14.820312-19.925781 17.8125-10.324219 3.492187-17.210938 13.257812-17.035156 24.152343.183594 9.101563-3.300782 17.890625-9.667969 24.394531-6.371094 6.5-15.089844 10.160157-24.191406 10.160157h-1.105469c-10.714844.007812-20.234375 6.832031-23.683594 16.976562-2.992187 8.789063-9.421875 15.988281-17.8125 19.953125-8.304687 3.972656-17.894531 4.269532-26.425781.824219-10.164063-3.878906-21.667969-.695313-28.382813 7.863281-5.730468 7.246094-14.160156 11.851563-23.355468 12.757813-9.066406.847656-18.082032-2.082031-24.914063-8.101563-4.476562-4.039062-10.296875-6.265625-16.328125-6.242187-4.632812.003906-9.175781 1.292969-13.121094 3.722656-7.777343 4.90625-17.238281 6.363281-26.128906 4.023437-8.839844-2.21875-16.320312-8.082031-20.585937-16.136718-2.472657-4.609375-6.367188-8.296875-11.109375-10.511719l22.371094-22.414063c70.628906 28.503907 151.449218 12.042969 205.300781-41.8125 53.855469-53.851562 70.3125-134.675781 41.808593-205.300781l22.410157-22.414062c2.21875 4.742187 5.90625 8.636719 10.519531 11.109375 8.050781 4.246094 13.921875 11.707031 16.15625 20.527344 2.34375 8.917968.867188 18.40625-4.074219 26.1875-5.738281 9.246093-4.734375 21.164062 2.480469 29.316406 6.042969 6.839844 9 15.867187 8.171875 24.957031-.886719 9.179687-5.46875 17.605469-12.691406 23.34375zm0 0"/><path d="m49.121094 366.394531 39.273437-39.285156 239.089844-239.085937 39.292969-39.300782c2.472656-2.484375 3.113281-6.257812 1.589844-9.417968-1.519532-3.15625-4.871094-5.011719-8.355469-4.621094-1.832031.207031-3.742188.488281-5.664063.898437-3.4375.730469-6.949218-.863281-8.664062-3.929687-6.402344-12.148438-17.65625-21.007813-30.96875-24.378906-13.261719-3.433594-27.355469-1.265626-38.976563 5.988281-3.070312 1.863281-6.992187 1.53125-9.703125-.824219-10.273437-9.089844-23.859375-13.511719-37.515625-12.214844-13.710937 1.355469-26.277343 8.234375-34.808593 19.050782-2.238282 2.769531-5.984376 3.824218-9.339844 2.632812-12.78125-5.042969-27.078125-4.589844-39.515625 1.257812-12.480469 5.910157-22.019531 16.640626-26.425781 29.726563-1.152344 3.464844-4.445313 5.757813-8.09375 5.640625-13.699219-.164062-26.902344 5.136719-36.6875 14.726562-9.679688 9.707032-15.003907 22.925782-14.757813 36.632813.007813 3.636719-2.261719 6.894531-5.683594 8.140625-13.070312 4.4375-23.777343 13.996094-29.660156 26.484375-5.832031 12.40625-6.296875 26.664063-1.289063 39.425781 1.222657 3.390625.164063 7.1875-2.644531 9.453125-10.796875 8.535157-17.652343 21.101563-18.992187 34.800781-1.238282 13.699219 3.246094 27.296876 12.386718 37.574219 2.257813 2.703125 2.550782 6.539063.734376 9.554688-7.265626 11.628906-9.453126 25.726562-6.050782 39.011719 3.371094 13.304687 12.230469 24.558593 24.375 30.957031 3.070313 1.722656 4.660156 5.238281 3.925782 8.679687-.394532 1.875-.691407 3.769532-.894532 5.671875-.378906 3.484375 1.476563 6.824219 4.632813 8.34375 3.15625 1.515625 6.925781.878907 9.40625-1.59375zm77.082031-240.582031c47.21875-47.617188 117.773437-63.507812 180.851563-40.738281l-13.253907 13.253906c-55.226562-16.667969-115.140625-1.613281-155.925781 39.175781-40.785156 40.792969-55.832031 100.707032-39.15625 155.929688l-13.253906 13.210937c-22.765625-63.070312-6.871094-133.617187 40.738281-180.832031zm-14.015625 154.136719c-10.96875-47.125 3.164062-96.574219 37.378906-130.789063 34.214844-34.210937 83.664063-48.335937 130.789063-37.363281zm-88.535156 30.246093c-2.34375-8.914062-.867188-18.40625 4.070312-26.191406 5.742188-9.246094 4.734375-21.160156-2.476562-29.308594-6.050782-6.839843-9.011719-15.871093-8.183594-24.964843.898438-9.183594 5.488281-17.609375 12.71875-23.34375 8.597656-6.738281 11.796875-18.300781 7.878906-28.5-3.421875-8.511719-3.121094-18.070313.824219-26.351563 3.949219-8.394531 11.140625-14.824218 19.917969-17.820312 10.308594-3.503906 17.175781-13.253906 17.003906-24.140625-.1875-9.097657 3.296875-17.890625 9.667969-24.390625 6.371093-6.5 15.089843-10.160156 24.191406-10.160156h.707031c10.863282.171874 20.59375-6.683594 24.089844-16.96875 2.992188-8.792969 9.421875-15.996094 17.820312-19.960938 8.308594-3.957031 17.890626-4.257812 26.425782-.824219 10.164062 3.890625 21.675781.710938 28.402344-7.847656 5.730468-7.246094 14.160156-11.851563 23.351562-12.757813 9.074219-.832031 18.089844 2.101563 24.941406 8.109376 8.167969 7.28125 20.160156 8.316406 29.457032 2.535156 7.765624-4.921875 17.230468-6.378906 26.117187-4.019532 8.824219 2.226563 16.285156 8.09375 20.53125 16.144532 2.46875 4.613281 6.367187 8.300781 11.105469 10.519531l-22.371094 22.394531c-70.617188-28.539062-151.453125-12.097656-205.316406 41.753906-53.863282 53.855469-70.316406 134.6875-41.789063 205.3125l-22.410156 22.417969c-2.214844-4.738281-5.90625-8.636719-10.523437-11.105469-8.042969-4.253906-13.910157-11.710937-16.152344-20.53125zm0 0"/><path d="m85.316406 423.636719 5.847656-5.835938c9.539063-9.699219 9.472657-25.277343-.148437-34.894531s-25.195313-9.679688-34.890625-.136719l-11.679688 11.652344c-3.222656 3.222656-3.222656 8.453125 0 11.675781l23.246094 23.246094.117188.074219.109375.117187 23.246093 23.246094c3.238282 3.128906 8.390626 3.085938 11.574219-.101562 3.1875-3.183594 3.230469-8.335938.101563-11.574219zm-5.839844-17.515625-5.835937 5.839844-11.671875-11.703126 5.839844-5.835937c3.242187-3.128906 8.390625-3.085937 11.578125.101563 3.183593 3.183593 3.230469 8.335937.097656 11.574218zm0 0"/><path d="m143.71875 408.519531c3.335938-.003906 6.347656-2.015625 7.625-5.101562 1.277344-3.082031.574219-6.636719-1.789062-8.996094l-9.257813-9.257813h26.773437c4.5625 0 8.257813-3.699218 8.257813-8.257812 0-4.5625-3.695313-8.257812-8.257813-8.257812h-27.070312c7.972656-10.351563 6.539062-25.117188-3.28125-33.738282-9.820312-8.617187-24.648438-8.128906-33.878906 1.117188l-5.839844 5.839844c-6.445312 6.449218-6.445312 16.902343 0 23.351562l40.878906 40.878906c1.546875 1.550782 3.648438 2.417969 5.839844 2.421875zm-17.515625-49.136719-5.839844 5.847657-11.683593-11.6875 5.835937-5.835938c2.085937-2.089843 5.128906-2.90625 7.976563-2.140625 2.851562.761719 5.078124 2.988282 5.84375 5.835938.765624 2.851562-.046876 5.890625-2.132813 7.980468zm0 0"/><path d="m315.476562 236.757812c0-4.558593-3.699218-8.257812-8.257812-8.257812h-27.070312c7.972656-10.351562 6.535156-25.117188-3.285157-33.738281-9.820312-8.617188-24.644531-8.128907-33.875 1.117187l-5.839843 5.839844c-3.097657 3.097656-4.839844 7.300781-4.839844 11.679688 0 4.382812 1.742187 8.585937 4.839844 11.683593l17.457031 17.464844.089843.097656 23.324219 23.3125c3.238281 3.132813 8.390625 3.085938 11.574219-.097656 3.1875-3.1875 3.230469-8.335937.101562-11.578125l-9.257812-9.265625h26.78125c4.558594 0 8.257812-3.695313 8.257812-8.257813zm-49.128906-17.515624-5.84375 5.839843-11.679687-11.6875 5.839843-5.828125c2.085938-2.085937 5.125-2.902344 7.976563-2.140625s5.078125 2.988281 5.84375 5.839844c.765625 2.847656-.050781 5.890625-2.136719 7.976563zm0 0"/><path d="m254.664062 300.996094c9.671876-9.671875 9.671876-25.355469 0-35.027344l-23.363281-23.363281c-6.242187-6.34375-15.40625-8.851563-24.007812-6.570313-8.601563 2.28125-15.316407 9-17.597657 17.601563-2.277343 8.601562.230469 17.765625 6.574219 24.007812l23.355469 23.363281c9.6875 9.644532 25.351562 9.644532 35.039062 0zm-23.363281-11.683594-23.351562-23.355469c-3.226563-3.222656-3.230469-8.453125-.003907-11.679687 3.222657-3.226563 8.453126-3.226563 11.679688-.003906l23.363281 23.363281c3.222657 3.226562 3.222657 8.457031-.003906 11.679687-3.226563 3.226563-8.457031 3.222656-11.683594-.003906zm0 0"/><path d="m184.59375 359.382812c3.226562 3.222657 8.453125 3.222657 11.675781 0l11.679688-11.675781 11.667969-11.671875c3.128906-3.238281 3.085937-8.390625-.101563-11.574218-3.183594-3.1875-8.335937-3.230469-11.574219-.101563l-5.839844 5.839844-35.03125-35.046875 5.847657-5.839844c3.128906-3.242188 3.085937-8.390625-.101563-11.578125-3.183594-3.183594-8.335937-3.226563-11.574218-.097656l-23.363282 23.351562c-2.148437 2.074219-3.007812 5.144531-2.253906 8.03125.757812 2.886719 3.011719 5.144531 5.898438 5.898438 2.886718.757812 5.957031-.105469 8.03125-2.25l5.839843-5.839844 35.039063 35.054687-5.839844 5.839844c-3.210938 3.222656-3.210938 8.4375 0 11.660156zm0 0"/><path d="m324.734375 219.234375c3.222656 3.222656 8.453125 3.222656 11.675781 0l23.363282-23.355469c2.144531-2.070312 3.007812-5.140625 2.25-8.027344-.753907-2.890624-3.007813-5.144531-5.898438-5.898437-2.886719-.757813-5.957031.105469-8.027344 2.25l-5.839844 5.839844-35.039062-35.03125 5.839844-5.847657c3.128906-3.238281 3.082031-8.390624-.101563-11.574218-3.1875-3.1875-8.335937-3.230469-11.578125-.101563l-11.675781 11.675781-11.667969 11.679688c-2.148437 2.070312-3.007812 5.140625-2.253906 8.027344.757812 2.890625 3.011719 5.144531 5.898438 5.898437 2.886718.757813 5.957031-.105469 8.03125-2.25l5.839843-5.839843 35.03125 35.039062-5.839843 5.839844c-3.226563 3.222656-3.230469 8.449218-.007813 11.675781zm0 0"/><path d="m388.972656 163.269531c3.34375.003907 6.359375-2.011719 7.636719-5.097656 1.277344-3.089844.570313-6.644531-1.796875-9.007813l-40.878906-40.867187 5.839844-5.847656c3.128906-3.242188 3.085937-8.390625-.101563-11.578125-3.183594-3.183594-8.335937-3.230469-11.574219-.097656l-23.363281 23.359374c-2.148437 2.074219-3.007813 5.144532-2.253906 8.03125.757812 2.886719 3.011719 5.144532 5.898437 5.898438 2.886719.757812 5.957032-.105469 8.03125-2.25l5.839844-5.839844 40.882812 40.878906c1.550782 1.546876 3.648438 2.417969 5.839844 2.417969zm0 0"/><path d="m429.84375 114.132812c2.070312 2.148438 5.140625 3.007813 8.03125 2.253907 2.886719-.757813 5.140625-3.011719 5.894531-5.898438.757813-2.886719-.105469-5.957031-2.25-8.03125l-21.976562-21.984375-11.0625-33.1875c-1.445313-4.332031-6.128907-6.675781-10.460938-5.230468-4.332031 1.441406-6.675781 6.125-5.230469 10.457031l6.480469 19.332031-19.363281-6.457031c-4.332031-1.445313-9.015625.898437-10.460938 5.230469-1.441406 4.332031.898438 9.015624 5.234376 10.460937l33.1875 11.054687zm0 0"/></svg>