<?xml version="1.0" encoding="iso-8859-1"?>
<!-- Generator: Adobe Illustrator 19.0.0, SVG Export Plug-In . SVG Version: 6.00 Build 0)  -->
<svg version="1.1" id="Layer_1" xmlns="http://www.w3.org/2000/svg" xmlns:xlink="http://www.w3.org/1999/xlink" x="0px" y="0px"
	 viewBox="0 0 512.001 512.001" style="enable-background:new 0 0 512.001 512.001;" xml:space="preserve">
<g>
	<g>
		<path d="M419.853,167.513c-8.994-8.751-17.489-17.018-22.4-25.505c-5.199-8.985-8.293-20.839-11.569-33.39
			c-5.798-22.211-11.793-45.179-30.956-56.265c-15.431-8.928-33.674-6.176-51.955-1.607l2.355-23.551
			c0.694-6.941-1.593-13.887-6.272-19.058C294.377,2.965,287.692,0,280.718,0h-49.433c-6.975,0-13.659,2.965-18.34,8.137
			c-4.68,5.172-6.966,12.118-6.272,19.058l2.355,23.551c-18.279-4.569-36.522-7.321-51.955,1.607
			c-19.162,11.087-25.158,34.054-30.956,56.265c-3.277,12.551-6.371,24.405-11.569,33.39c-4.911,8.488-13.407,16.754-22.4,25.506
			c-15.91,15.481-33.941,33.026-33.941,56.149s18.032,40.669,33.941,56.15c8.994,8.751,17.489,17.018,22.4,25.505
			c5.199,8.985,8.293,20.839,11.569,33.39c3.02,11.572,6.1,23.346,11.062,33.542L95.143,476.767
			c-1.101,2.737-0.623,5.855,1.245,8.137s4.831,3.365,7.731,2.827l36.65-6.806l14.794,26.888c1.426,2.592,4.147,4.187,7.081,4.187
			c0.163,0,0.326-0.004,0.489-0.015c3.117-0.189,5.848-2.156,7.013-5.053l45.022-111.942c1.58-0.42,3.159-0.845,4.734-1.27
			c12.318-3.322,25.057-6.756,36.099-6.756c11.042,0,23.78,3.435,36.099,6.756c1.575,0.425,3.153,0.849,4.733,1.27l45.023,111.943
			c1.166,2.897,3.896,4.865,7.013,5.053c0.164,0.01,0.327,0.015,0.489,0.015c2.933,0,5.655-1.594,7.081-4.187l14.794-26.888
			l36.65,6.806c2.901,0.539,5.863-0.545,7.731-2.827c1.868-2.283,2.345-5.401,1.245-8.137L374.82,372.251
			c4.963-10.196,8.041-21.97,11.062-33.542c3.277-12.551,6.371-24.405,11.569-33.39c4.911-8.488,13.407-16.754,22.4-25.506
			c15.912-15.482,33.943-33.027,33.943-56.15S435.762,182.994,419.853,167.513z M224.931,18.987
			c1.645-1.817,3.901-2.819,6.352-2.819h49.433c2.451,0,4.707,1.001,6.352,2.819c1.645,1.817,2.417,4.162,2.172,6.601l-2.958,29.573
			c-10.453,2.757-20.97,5.201-30.282,5.201s-19.829-2.444-30.283-5.201l-2.958-29.574C222.516,23.149,223.286,20.804,224.931,18.987
			z M161.508,485.078l-9.39-17.066c-1.68-3.054-5.126-4.686-8.559-4.051l-27.925,5.187l32.571-80.982
			c2.605,2.583,5.533,4.877,8.868,6.807c7.394,4.278,15.434,5.876,23.815,5.876c4.928,0,9.976-0.557,15.078-1.441L161.508,485.078z
			 M396.367,469.148l-27.925-5.187c-3.43-0.636-6.878,0.997-8.558,4.051l-9.39,17.066l-34.456-85.671
			c13.777,2.386,27.149,2.359,38.893-4.436c3.334-1.929,6.263-4.225,8.868-6.807L396.367,469.148z M408.579,268.223
			c-9.385,9.133-19.089,18.576-25.119,28.998c-6.295,10.879-9.814,24.364-13.218,37.402c-5.189,19.875-10.089,38.648-23.409,46.355
			c-12.681,7.336-31.063,2.38-50.524-2.868c-13.336-3.596-27.124-7.314-40.308-7.314s-26.972,3.718-40.308,7.314
			c-19.461,5.248-37.842,10.204-50.524,2.868c-13.32-7.706-18.221-26.48-23.409-46.354c-3.404-13.039-6.923-26.523-13.218-37.403
			c-6.029-10.421-15.734-19.865-25.119-28.996c-14.938-14.535-29.047-28.265-29.047-44.561c0-16.296,14.11-30.025,29.047-44.56
			c9.385-9.133,19.089-18.576,25.119-28.998c6.295-10.879,9.814-24.364,13.218-37.402c5.189-19.875,10.089-38.648,23.409-46.355
			c4.598-2.66,9.944-3.704,15.82-3.704c10.331,0,22.299,3.227,34.704,6.572c13.336,3.596,27.124,7.314,40.308,7.314
			s26.972-3.718,40.308-7.313c19.461-5.247,37.844-10.203,50.524-2.868c13.32,7.706,18.221,26.48,23.409,46.354
			c3.404,13.039,6.923,26.523,13.218,37.403c6.029,10.421,15.734,19.865,25.119,28.996c14.938,14.535,29.047,28.265,29.047,44.561
			C437.626,239.959,423.516,253.688,408.579,268.223z"/>
	</g>
</g>
<g>
	<g>
		<path d="M347.119,120.871c-3.207-2.846-8.073-2.718-11.106,0.314c-3.312,3.312-3.087,8.7,0.415,11.81
			c25.851,22.956,41.858,56.765,40.784,94.212c-1.827,63.713-53.425,115.548-117.129,117.652
			c-70.033,2.312-127.508-55.11-125.284-125.124c2.007-63.186,52.972-114.641,116.137-117.231
			c17.377-0.713,33.991,2.261,49.136,8.193c2.989,1.171,6.382,0.508,8.651-1.761l0.122-0.122c4.062-4.061,2.665-10.99-2.68-13.094
			c-16.655-6.556-34.886-9.953-53.955-9.437c-72.082,1.953-132.922,63.89-133.635,135.996
			c-0.772,77.963,63.724,141.343,142.084,138.738c71.837-2.388,130.147-60.571,132.686-132.403
			C394.858,185.785,376.654,147.079,347.119,120.871z"/>
	</g>
</g>
<g>
	<g>
		<path d="M256.001,118.568c-57.95,0-105.095,47.145-105.095,105.095c0,4.465,3.62,8.084,8.084,8.084
			c4.465,0,8.084-3.62,8.084-8.084c0-49.034,39.892-88.926,88.926-88.926c4.465,0,8.084-3.62,8.084-8.084
			C264.085,122.188,260.465,118.568,256.001,118.568z"/>
	</g>
</g>
<g>
	<g>
		<path d="M353.011,215.579c-4.465,0-8.084,3.62-8.084,8.084c0,49.035-39.892,88.926-88.926,88.926c-4.465,0-8.084,3.62-8.084,8.084
			c0,4.465,3.62,8.084,8.084,8.084c57.95,0,105.095-47.145,105.095-105.095C361.095,219.199,357.476,215.579,353.011,215.579z"/>
	</g>
</g>
<g>
</g>
<g>
</g>
<g>
</g>
<g>
</g>
<g>
</g>
<g>
</g>
<g>
</g>
<g>
</g>
<g>
</g>
<g>
</g>
<g>
</g>
<g>
</g>
<g>
</g>
<g>
</g>
<g>
</g>
</svg>
