<?xml version="1.0" encoding="iso-8859-1"?>
<!-- Generator: Adobe Illustrator 19.0.0, SVG Export Plug-In . SVG Version: 6.00 Build 0)  -->
<svg version="1.1" id="Capa_1" xmlns="http://www.w3.org/2000/svg" xmlns:xlink="http://www.w3.org/1999/xlink" x="0px" y="0px"
	 viewBox="0 0 480 480" style="enable-background:new 0 0 480 480;" xml:space="preserve">
<g>
	<g>
		<path d="M479.752,278.586c0.016-0.28,0.016-0.56,0-0.84l-29.416-110.32c4.194-1.225,6.602-5.618,5.377-9.813
			c-0.032-0.111-0.067-0.222-0.105-0.331l-8-24c-1.09-3.274-4.157-5.48-7.608-5.472H336v-48c0-4.418-3.582-8-8-8h-40
			c-4.418,0-8,3.582-8,8s3.582,8,8,8h32v248H32v-88c0-4.418-3.582-8-8-8s-8,3.582-8,8v88H8c-4.418,0-8,3.582-8,8v32
			c0,4.418,3.582,8,8,8h24v24c0,4.418,3.582,8,8,8h24c-0.104,26.615,21.388,48.276,48.003,48.38
			c25.863,0.101,47.042-20.191,48.315-45.76c0.238,4.548,1.125,9.137,2.739,13.645c8.91,24.892,36.312,37.849,61.204,28.939
			c19.082-6.83,31.795-24.937,31.739-45.204h80.64c4.391,30.574,32.736,51.8,63.311,47.409c24.574-3.529,43.88-22.836,47.409-47.409
			H472c4.418,0,8-3.582,8-8v-128C479.954,279.395,479.871,278.986,479.752,278.586z M32,367.81H16v-16h16V367.81z M461.6,271.81
			h-57.32L392,253.41v-85.6h41.848L461.6,271.81z M112,447.81c-17.673,0-32-14.327-32-32c0-17.673,14.327-32,32-32s32,14.327,32,32
			C144,433.483,129.673,447.81,112,447.81z M208,447.81c-17.673,0-32-14.327-32-32c0-17.673,14.327-32,32-32s32,14.327,32,32
			C240,433.483,225.673,447.81,208,447.81z M392,447.81c-22.091,0-40-17.909-40-40c0-22.091,17.909-40,40-40
			c22.091,0,40,17.909,40,40C431.974,429.89,414.08,447.783,392,447.81z M464,335.81h-24v-24h24V335.81z M464,295.81h-32
			c-4.418,0-8,3.582-8,8v40c0,4.418,3.582,8,8,8h32v48h-16.64c-4.391-30.575-32.736-51.8-63.311-47.409
			c-24.574,3.529-43.88,22.835-47.409,47.409H253.2c-8.91-24.893-36.312-37.849-61.204-28.939
			c-18.735,6.706-30.704,23.887-31.683,42.589c-1.315-25.352-22.232-45.553-47.932-45.653c-20.443-0.08-38.713,12.747-45.58,32.003
			H48v-48h280c4.418,0,8-3.582,8-8v-200h98.232l2.664,8H384c-4.418,0-8,3.582-8,8v96c0.003,1.58,0.47,3.124,1.344,4.44l16,24
			c1.484,2.225,3.982,3.56,6.656,3.56h64V295.81z"/>
	</g>
</g>
<g>
	<g>
		<path d="M392,383.81c-13.255,0-24,10.745-24,24s10.745,24,24,24s24-10.745,24-24S405.255,383.81,392,383.81z M392,415.81
			c-4.418,0-8-3.582-8-8s3.582-8,8-8s8,3.582,8,8S396.418,415.81,392,415.81z"/>
	</g>
</g>
<g>
	<g>
		<circle cx="208" cy="415.81" r="16"/>
	</g>
</g>
<g>
	<g>
		<circle cx="112" cy="415.81" r="16"/>
	</g>
</g>
<g>
	<g>
		<path d="M273.984,139.122l-18.456-10.128l-1.048-4.656l12.216-17.088c1.7-2.379,1.967-5.495,0.696-8.128l-6.088-12.64
			c-1.271-2.634-3.879-4.364-6.8-4.512l-20.976-1.096l-2.968-3.728l3.6-20.712c0.5-2.88-0.611-5.802-2.896-7.624l-10.968-8.752
			c-2.285-1.824-5.383-2.257-8.08-1.128L192.8,47.01l-4.312-2.072l-5.744-20.224c-0.805-2.809-3.078-4.956-5.928-5.6L163.2,16.01
			c-2.848-0.647-5.823,0.31-7.76,2.496L141.456,34.21h-4.8l-13.912-15.704c-1.939-2.189-4.917-3.146-7.768-2.496l-13.68,3.12
			c-2.847,0.646-5.117,2.793-5.92,5.6L89.6,44.962l-4.296,2.064L65.92,38.922c-2.695-1.126-5.789-0.693-8.072,1.128L46.88,48.802
			c-2.285,1.822-3.396,4.744-2.896,7.624l3.592,20.712L44.6,80.874l-20.976,1.088c-2.918,0.151-5.522,1.88-6.792,4.512l-6.088,12.64
			c-1.271,2.633-1.004,5.749,0.696,8.128l12.216,17.096l-1.056,4.656L4.152,139.122c-2.559,1.404-4.15,4.09-4.152,7.008v14.024
			c-0.001,2.921,1.591,5.611,4.152,7.016l18.4,10.128l1.064,4.656L11.44,199.01c-1.699,2.375-1.969,5.488-0.704,8.12l6.064,12.68
			c1.27,2.632,3.874,4.361,6.792,4.512l20.968,1.088l2.976,3.736L44,249.858c-0.5,2.88,0.611,5.802,2.896,7.624l10.944,8.728
			c2.283,1.821,5.377,2.254,8.072,1.128l19.408-8.104l4.304,2.072l5.752,20.216c0.802,2.805,3.068,4.951,5.912,5.6l13.68,3.12
			c2.839,0.666,5.815-0.266,7.768-2.432l13.944-15.728h4.8l13.912,15.728c1.937,2.186,4.912,3.143,7.76,2.496l13.688-3.12
			c2.847-0.646,5.116-2.793,5.92-5.6l5.744-20.216l4.304-2.064l19.4,8.104c2.697,1.129,5.795,0.696,8.08-1.128l10.96-8.752
			c2.288-1.82,3.402-4.743,2.904-7.624l-3.6-20.72l2.976-3.728l20.976-1.088c2.923-0.149,5.531-1.883,6.8-4.52l6.088-12.632
			c1.271-2.633,1.004-5.749-0.696-8.128l-12.216-17.136l1.048-4.656l18.456-10.128c2.561-1.405,4.153-4.095,4.152-7.016v-14.016
			C278.137,143.217,276.545,140.527,273.984,139.122z M262.096,155.458l-17.456,9.6c-2.006,1.101-3.445,3.008-3.952,5.24
			l-2.656,11.664c-0.498,2.221-0.027,4.548,1.296,6.4l11.552,16.168l-1.976,4.104l-19.832,1.024c-2.286,0.118-4.412,1.21-5.84,3
			l-7.464,9.36c-1.415,1.792-1.998,4.103-1.6,6.352l3.4,19.6l-3.56,2.84l-18.352-7.664c-2.111-0.882-4.499-0.818-6.56,0.176
			l-10.784,5.192c-2.057,0.993-3.591,2.819-4.216,5.016l-5.432,19.12l-4.448,1.008l-13.176-14.904
			c-1.517-1.713-3.695-2.695-5.984-2.696h-12c-2.289,0.001-4.467,0.983-5.984,2.696l-13.192,14.872l-4.432-1.008L104,253.498
			c-0.628-2.197-2.161-4.024-4.216-5.024L89,243.282c-2.062-0.988-4.448-1.052-6.56-0.176l-18.352,7.664l-3.568-2.84l3.4-19.6
			c0.398-2.249-0.185-4.56-1.6-6.352l-7.472-9.368c-1.423-1.789-3.548-2.88-5.832-2.992l-19.832-1.008l-1.984-4.12l11.56-16.16
			c1.32-1.853,1.788-4.181,1.288-6.4l-2.656-11.72c-0.51-2.224-1.945-4.125-3.944-5.224L16,155.426v-4.56l17.456-9.6
			c2.006-1.101,3.445-3.008,3.952-5.24l2.648-11.664c0.5-2.219,0.032-4.547-1.288-6.4L27.2,101.794l1.976-4.104l19.84-1.032
			c2.286-0.111,4.412-1.205,5.832-3l7.472-9.352c1.415-1.792,1.998-4.103,1.6-6.352l-3.36-19.6l3.568-2.84l18.352,7.664
			c2.111,0.868,4.49,0.804,6.552-0.176l10.784-5.192c2.045-1.001,3.567-2.825,4.184-5.016l5.44-19.12l4.44-1.016l13.184,14.88
			c1.517,1.713,3.696,2.695,5.984,2.696h12c2.288-0.001,4.467-0.983,5.984-2.696l13.184-14.88l4.44,1.016l5.44,19.12
			c0.625,2.202,2.162,4.031,4.224,5.024l10.784,5.192c2.06,0.989,4.444,1.05,6.552,0.168l18.352-7.664l3.56,2.848l-3.4,19.592
			c-0.406,2.264,0.177,4.593,1.6,6.4l7.464,9.352c1.428,1.79,3.554,2.882,5.84,3l19.832,1.032l1.976,4.104l-11.552,16.16
			c-1.32,1.853-1.788,4.181-1.288,6.4l2.648,11.656c0.507,2.232,1.946,4.139,3.952,5.24l17.456,9.6V155.458z"/>
	</g>
</g>
<g>
	<g>
		<path d="M136,79.81c-39.765,0-72,32.235-72,72c0.044,39.746,32.254,71.956,72,72c39.765,0,72-32.236,72-72
			C208,112.045,175.765,79.81,136,79.81z M136,207.81c-30.928,0-56-25.072-56-56c0.035-30.913,25.087-55.965,56-56
			c30.928,0,56,25.072,56,56C192,182.738,166.928,207.81,136,207.81z"/>
	</g>
</g>
<g>
	<g>
		<path d="M136,111.81c-22.091,0-40,17.909-40,40c0.026,22.08,17.92,39.974,40,40c22.091,0,40-17.909,40-40
			S158.091,111.81,136,111.81z M136,175.81c-13.255,0-24-10.745-24-24s10.745-24,24-24s24,10.745,24,24S149.255,175.81,136,175.81z"
			/>
	</g>
</g>
<g>
</g>
<g>
</g>
<g>
</g>
<g>
</g>
<g>
</g>
<g>
</g>
<g>
</g>
<g>
</g>
<g>
</g>
<g>
</g>
<g>
</g>
<g>
</g>
<g>
</g>
<g>
</g>
<g>
</g>
</svg>
